<?xml version="1.0" encoding="UTF-8"?>
<svg id="Layer_1" xmlns="http://www.w3.org/2000/svg" version="1.1" viewBox="0 0 1400 800">
  <!-- Generator: Adobe Illustrator 30.6.0, SVG Export Plug-In . SVG Version: 2.1.4 Build 109)  -->
  <defs>
    <style>
      .st0 {
        fill: #f27031;
      }
    </style>
  </defs>
  <path class="st0" d="M1185,470h-190c-35.9,0-65-29.1-65-65s29.1-65,65-65h405l-50-100h-355c-91.13,0-165,73.87-165,165s73.87,165,165,165h190c35.9,0,65,29.1,65,65s-29.1,65-65,65h-435V240H202.5v.47c-85.29,6.39-152.5,77.61-152.5,164.53s73.87,165,165,165h190c35.9,0,65,29.1,65,65s-29.1,65-65,65H0l50,100h355c91.13,0,165-73.87,165-165s-73.87-165-165-165h-190c-35.9,0-65-29.1-65-65s29.1-65,65-65h435v460h547.5v-.47c85.29-6.39,152.5-77.61,152.5-164.53s-73.87-165-165-165Z"/>
  <circle class="st0" cx="700" cy="75" r="75"/>
</svg>